<?xml version="1.0" standalone="no"?>
<!DOCTYPE svg PUBLIC "-//W3C//DTD SVG 20010904//EN"
 "http://www.w3.org/TR/2001/REC-SVG-20010904/DTD/svg10.dtd">
<svg version="1.0" xmlns="http://www.w3.org/2000/svg"
 width="189.000000pt" height="189.000000pt" viewBox="0 0 189.000000 189.000000"
 preserveAspectRatio="xMidYMid meet">
<metadata>
Created by potrace 1.14, written by Peter Selinger 2001-2017
</metadata>
<g transform="translate(0.000000,189.000000) scale(0.100000,-0.100000)"
fill="#000000" stroke="none">
<path d="M505 1649 c-108 -16 -227 -88 -300 -180 -56 -70 -98 -198 -93 -281 3
-47 6 -54 31 -62 41 -15 65 14 68 84 4 70 21 120 65 186 102 154 318 204 494
114 46 -23 113 -90 135 -134 41 -84 76 -89 119 -18 64 102 105 139 196 173
139 52 298 19 401 -84 99 -98 130 -224 93 -377 -39 -166 -192 -372 -404 -543
-69 -55 -252 -185 -304 -215 l-38 -23 -142 95 c-77 52 -150 102 -161 113 -11
10 -33 29 -50 41 -16 13 -67 59 -111 103 -87 84 -112 94 -138 57 -23 -32 -20
-42 23 -85 145 -144 290 -260 456 -363 90 -56 119 -70 137 -64 35 10 195 113
305 195 128 95 335 303 403 403 157 234 183 458 74 637 -92 153 -235 233 -414
232 -138 -1 -255 -51 -342 -147 l-37 -41 -43 46 c-103 110 -262 162 -423 138z"/>
<path d="M640 1154 c-8 -3 -42 -45 -74 -94 l-59 -90 -152 0 c-134 0 -154 -2
-168 -18 -22 -24 -21 -45 1 -65 16 -15 45 -17 195 -17 l177 0 46 70 c26 39 50
70 53 70 3 0 53 -72 111 -160 62 -94 113 -161 125 -164 31 -8 56 15 110 103
l50 80 91 1 c75 0 94 3 107 18 22 24 21 45 -2 66 -15 14 -37 16 -132 14 l-114
-3 -45 -67 c-25 -37 -48 -67 -51 -68 -3 0 -48 63 -99 140 -94 142 -132 191
-147 189 -4 -1 -15 -3 -23 -5z"/>
</g>
</svg>
